<?xml version="1.0" standalone="no"?>
<!DOCTYPE svg PUBLIC "-//W3C//DTD SVG 20010904//EN"
 "http://www.w3.org/TR/2001/REC-SVG-20010904/DTD/svg10.dtd">
<svg version="1.0" xmlns="http://www.w3.org/2000/svg"
 width="512.000000pt" height="512.000000pt" viewBox="0 0 512.000000 512.000000"
 preserveAspectRatio="xMidYMid meet">

<g transform="translate(0.000000,512.000000) scale(0.100000,-0.100000)"
fill="#000000" stroke="none">
<path d="M2544 4697 c-2 -7 -3 -74 -2 -148 3 -111 6 -134 18 -134 13 0 15 24
18 148 2 128 0 147 -13 147 -9 0 -18 -6 -21 -13z"/>
<path d="M2544 4257 c-3 -8 -4 -47 -2 -88 2 -58 6 -74 18 -74 12 0 16 18 18
88 2 74 0 87 -13 87 -9 0 -18 -6 -21 -13z"/>
<path d="M3183 4138 c-11 -14 -51 -114 -55 -138 -2 -9 4 -15 16 -15 13 0 26
19 47 73 27 68 30 92 10 92 -5 0 -13 -6 -18 -12z"/>
<path d="M1886 4131 c-9 -14 55 -161 70 -161 25 0 23 18 -8 94 -29 70 -48 90
-62 67z"/>
<path d="M1037 4076 c-8 -20 187 -211 208 -203 12 5 13 11 6 24 -13 25 -186
193 -199 193 -5 0 -12 -6 -15 -14z"/>
<path d="M3965 3990 c-70 -70 -96 -103 -92 -115 5 -12 11 -13 24 -6 25 13 193
186 193 199 0 33 -37 11 -125 -78z"/>
<path d="M2186 4032 c-3 -5 28 -151 70 -323 170 -712 174 -727 189 -687 8 19
-224 990 -240 1006 -7 8 -15 10 -19 4z"/>
<path d="M2875 4018 c-3 -13 -52 -223 -110 -468 -117 -491 -126 -535 -104
-528 17 6 7 -31 133 503 127 537 123 515 102 515 -8 0 -18 -10 -21 -22z"/>
<path d="M2540 3750 c0 -213 1 -220 20 -220 19 0 20 7 20 220 0 213 -1 220
-20 220 -19 0 -20 -7 -20 -220z"/>
<path d="M2004 3856 c-8 -21 144 -395 164 -403 35 -14 25 25 -50 202 -84 199
-102 232 -114 201z"/>
<path d="M3052 3828 c-111 -266 -145 -359 -134 -370 8 -8 15 -8 21 -2 13 13
161 380 161 399 0 31 -31 14 -48 -27z"/>
<path d="M3317 3848 c-133 -212 -527 -860 -527 -867 0 -29 24 -15 53 31 150
239 507 827 507 836 0 22 -20 22 -33 0z"/>
<path d="M1746 3842 c-4 -8 499 -835 533 -876 25 -30 36 -1 14 36 -37 61 -439
712 -482 781 -41 65 -54 76 -65 59z"/>
<path d="M1330 3777 c0 -7 24 -37 54 -66 40 -39 59 -52 72 -47 15 6 8 16 -41
66 -58 58 -85 73 -85 47z"/>
<path d="M3697 3722 c-31 -32 -57 -63 -57 -70 0 -25 28 -10 83 46 47 48 55 61
44 70 -10 9 -25 -1 -70 -46z"/>
<path d="M1562 3558 c-10 -10 19 -44 140 -165 143 -144 178 -171 178 -140 0 7
-69 81 -153 165 -121 121 -155 150 -165 140z"/>
<path d="M3392 3417 c-84 -84 -152 -158 -152 -165 0 -30 35 -2 178 141 123
123 151 156 140 165 -11 9 -45 -20 -166 -141z"/>
<path d="M2540 3295 c0 -78 2 -85 20 -85 18 0 20 7 20 85 0 78 -2 85 -20 85
-18 0 -20 -7 -20 -85z"/>
<path d="M3422 3125 c-461 -284 -475 -293 -467 -306 4 -5 9 -9 13 -9 7 0 815
498 863 532 17 11 21 19 14 27 -7 7 -135 -67 -423 -244z"/>
<path d="M1255 3340 c-3 -5 5 -16 17 -23 386 -242 864 -527 876 -522 13 5 14
8 1 19 -22 21 -865 536 -877 536 -6 0 -13 -4 -17 -10z"/>
<path d="M2831 3288 c-47 -110 -51 -138 -18 -125 18 7 70 135 63 153 -10 25
-27 14 -45 -28z"/>
<path d="M2227 3313 c-6 -9 48 -142 64 -157 6 -6 13 -6 20 1 9 9 4 30 -19 85
-28 66 -52 93 -65 71z"/>
<path d="M4043 3208 c-67 -28 -87 -48 -64 -62 16 -10 162 57 159 73 -5 23 -18
21 -95 -11z"/>
<path d="M954 3216 c-8 -21 -12 -18 74 -55 73 -31 92 -32 92 -6 0 11 -31 26
-147 72 -7 3 -16 -2 -19 -11z"/>
<path d="M1962 3158 c-10 -10 0 -25 45 -70 56 -56 83 -71 83 -45 0 7 -26 38
-58 70 -45 45 -60 55 -70 45z"/>
<path d="M3065 3090 c-47 -47 -57 -62 -47 -72 10 -10 25 0 72 47 57 56 67 74
44 82 -5 2 -36 -24 -69 -57z"/>
<path d="M3640 3040 c-145 -61 -185 -82 -185 -97 0 -24 3 -24 210 64 187 78
208 89 199 104 -10 17 -39 8 -224 -71z"/>
<path d="M1253 3094 c-3 -8 -2 -19 3 -23 5 -4 96 -43 202 -85 143 -58 197 -75
205 -67 17 17 3 25 -157 91 -257 106 -246 102 -253 84z"/>
<path d="M3765 2879 c-132 -32 -354 -86 -492 -120 -139 -33 -255 -65 -259 -70
-3 -5 1 -12 9 -14 16 -7 987 223 1004 237 14 12 8 29 -10 27 -7 -1 -120 -28
-252 -60z"/>
<path d="M1080 2896 c0 -8 10 -18 23 -21 12 -3 211 -50 442 -104 231 -55 448
-106 483 -114 58 -13 81 -9 67 12 -3 5 -20 13 -38 16 -17 4 -228 53 -467 110
-529 126 -510 122 -510 101z"/>
<path d="M3235 2869 c-81 -35 -94 -44 -78 -60 15 -15 157 42 161 64 6 27 -12
26 -83 -4z"/>
<path d="M1775 2880 c-10 -17 2 -27 70 -54 76 -30 98 -33 93 -9 -2 10 -31 28
-72 45 -77 31 -82 32 -91 18z"/>
<path d="M412 2563 c3 -16 17 -18 148 -18 122 0 145 2 145 15 0 13 -24 15
-148 18 -138 2 -148 1 -145 -15z"/>
<path d="M827 2574 c-3 -3 -3 -12 0 -20 4 -10 26 -14 89 -14 77 0 84 2 84 20
0 18 -7 20 -83 20 -46 0 -86 -3 -90 -6z"/>
<path d="M1150 2560 c0 -19 7 -20 220 -20 213 0 220 1 220 20 0 19 -7 20 -220
20 -213 0 -220 -1 -220 -20z"/>
<path d="M1715 2570 c-14 -22 10 -30 91 -30 76 0 85 2 82 18 -3 14 -16 17 -85
20 -49 2 -84 -1 -88 -8z"/>
<path d="M3210 2560 c0 -18 7 -20 85 -20 78 0 85 2 85 20 0 18 -7 20 -85 20
-78 0 -85 -2 -85 -20z"/>
<path d="M3530 2560 c0 -19 7 -20 220 -20 213 0 220 1 220 20 0 19 -7 20 -220
20 -213 0 -220 -1 -220 -20z"/>
<path d="M4095 2570 c-14 -22 10 -30 91 -30 76 0 85 2 82 18 -3 14 -16 17 -85
20 -49 2 -84 -1 -88 -8z"/>
<path d="M4415 2570 c-15 -25 12 -30 151 -30 133 0 145 1 142 18 -3 15 -19 17
-145 20 -89 2 -144 -1 -148 -8z"/>
<path d="M3024 2469 c-9 -15 5 -27 39 -34 17 -4 210 -49 427 -100 478 -113
529 -125 541 -125 19 0 8 30 -13 35 -34 8 -907 213 -951 224 -22 5 -39 5 -43
0z"/>
<path d="M1577 2331 c-268 -65 -490 -121 -494 -125 -4 -3 -2 -11 3 -16 10 -10
141 19 749 169 243 59 309 83 250 88 -11 1 -239 -51 -508 -116z"/>
<path d="M2965 2320 c-7 -11 -22 -2 488 -314 275 -169 392 -236 405 -231 16 6
15 8 -3 22 -40 30 -865 533 -874 533 -6 0 -13 -4 -16 -10z"/>
<path d="M3160 2314 c0 -17 99 -65 140 -67 49 -3 26 26 -44 55 -79 32 -96 34
-96 12z"/>
<path d="M1855 2283 c-70 -29 -80 -36 -72 -57 5 -13 18 -11 84 18 44 18 78 39
78 47 0 22 -25 20 -90 -8z"/>
<path d="M1970 2202 c-96 -60 -285 -177 -420 -260 -294 -181 -288 -177 -274
-192 9 -9 29 0 80 32 38 25 229 143 424 263 195 119 363 224 372 233 16 14 16
32 0 32 -4 0 -86 -49 -182 -108z"/>
<path d="M3454 2199 c-3 -6 -2 -14 2 -19 14 -12 381 -160 399 -160 10 0 15 7
13 17 -2 11 -65 42 -193 94 -104 43 -195 78 -202 78 -6 1 -15 -4 -19 -10z"/>
<path d="M1453 2116 c-106 -44 -195 -87 -197 -94 -13 -32 37 -18 219 59 142
60 195 86 193 97 -2 9 -7 16 -13 18 -5 1 -96 -35 -202 -80z"/>
<path d="M2815 2160 c-4 -6 10 -39 31 -73 21 -34 138 -222 259 -418 262 -425
250 -407 264 -394 7 8 -68 138 -254 439 -145 236 -270 436 -278 444 -11 10
-17 11 -22 2z"/>
<path d="M2277 2108 c-265 -421 -508 -831 -502 -846 6 -16 8 -15 22 3 30 40
533 865 533 874 0 29 -24 15 -53 -31z"/>
<path d="M2675 2098 c-7 -17 223 -988 238 -1006 31 -38 20 34 -48 318 -171
713 -175 728 -190 688z"/>
<path d="M3014 2099 c-4 -6 20 -38 55 -72 48 -49 63 -59 73 -49 10 10 0 25
-47 72 -62 63 -69 67 -81 49z"/>
<path d="M2440 2074 c-6 -14 -10 -29 -10 -35 0 -5 -47 -206 -104 -446 -127
-531 -123 -513 -102 -513 8 0 18 10 21 23 3 12 52 222 110 467 114 481 124
530 106 530 -6 0 -16 -12 -21 -26z"/>
<path d="M2007 2032 c-45 -45 -55 -60 -45 -70 10 -10 25 0 70 45 56 56 71 83
45 83 -7 0 -38 -26 -70 -58z"/>
<path d="M3983 1984 c-8 -21 0 -26 81 -58 44 -17 72 -24 79 -17 12 12 1 30
-26 41 -12 4 -46 17 -75 29 -47 19 -53 19 -59 5z"/>
<path d="M1033 1938 c-67 -28 -87 -48 -64 -62 9 -6 136 45 153 62 10 10 3 32
-10 32 -4 -1 -40 -15 -79 -32z"/>
<path d="M2814 1937 c-8 -22 51 -152 71 -156 15 -2 17 2 12 25 -9 44 -55 144
-67 144 -6 0 -13 -6 -16 -13z"/>
<path d="M2282 1923 c-32 -65 -54 -135 -44 -145 6 -6 15 -8 20 -4 12 7 62 130
62 151 0 21 -27 19 -38 -2z"/>
<path d="M2544 1877 c-3 -8 -4 -47 -2 -88 2 -58 6 -74 18 -74 12 0 16 18 18
88 2 74 0 87 -13 87 -9 0 -18 -6 -21 -13z"/>
<path d="M1702 1727 c-121 -121 -150 -155 -140 -165 10 -10 44 19 165 140 144
143 171 178 140 178 -7 0 -81 -69 -165 -153z"/>
<path d="M3240 1867 c0 -7 69 -81 153 -165 121 -121 155 -150 165 -140 10 10
-19 44 -140 165 -143 144 -178 171 -178 140z"/>
<path d="M2171 1653 c-8 -17 -101 -243 -142 -346 -17 -43 -17 -48 -3 -54 9 -3
20 0 25 8 23 39 160 390 154 399 -9 15 -23 12 -34 -7z"/>
<path d="M2926 1662 c-8 -13 157 -401 172 -407 32 -12 18 38 -58 220 -75 177
-97 213 -114 187z"/>
<path d="M2540 1370 c0 -213 1 -220 20 -220 19 0 20 7 20 220 0 213 -1 220
-20 220 -19 0 -20 -7 -20 -220z"/>
<path d="M3640 1467 c0 -7 26 -38 58 -70 45 -45 60 -55 70 -45 10 10 0 25 -45
70 -56 56 -83 71 -83 45z"/>
<path d="M1387 1412 c-56 -57 -70 -82 -44 -82 16 0 117 101 117 117 0 28 -20
18 -73 -35z"/>
<path d="M1139 1173 c-102 -99 -118 -121 -98 -134 10 -6 42 20 112 89 53 53
97 102 97 109 0 33 -29 17 -111 -64z"/>
<path d="M3866 1241 c-7 -10 156 -186 186 -202 16 -8 23 -8 29 2 6 10 -20 42
-89 112 -92 93 -114 108 -126 88z"/>
<path d="M3155 1120 c-9 -14 56 -160 71 -160 24 0 23 17 -4 81 -39 91 -51 105
-67 79z"/>
<path d="M1921 1044 c-30 -76 -32 -94 -7 -94 15 0 79 147 70 161 -14 24 -34 2
-63 -67z"/>
<path d="M2540 917 c0 -88 3 -99 26 -90 10 4 14 26 14 89 0 77 -2 84 -20 84
-18 0 -20 -7 -20 -83z"/>
<path d="M2547 704 c-4 -4 -7 -72 -7 -151 0 -132 1 -144 18 -141 15 3 17 18
17 147 0 135 -6 167 -28 145z"/>
</g>
</svg>
